<svg xmlns="http://www.w3.org/2000/svg" width="1240" height="1240"><path d="M385.026 105.25l.027 64.25 55.723 32.219 55.724 32.219.261-40.469.261-40.469H743l.006 199.25.005 199.25 41.863 24.25c23.025 13.338 42.352 24.25 42.949 24.25 1.212 0 107.92-61.6 109.989-63.495 1.046-.957-7.213-6.141-40.75-25.576L855 486.554V41H385l.026 64.25m582.806 43.553a26775.581 26775.581 0 0 1-54.75 31.689L894 191.484V321.07l2.25-1.187c2.057-1.085 11.159-6.368 52.667-30.57 11.654-6.795 14.65-8.158 15.628-7.11.666.713 28.558 48.928 61.984 107.144 38.088 66.337 60.361 106.091 59.667 106.5-.608.359-78.058 45.203-172.111 99.653l-171.006 99-.02 49-.019 49 55.73 32.272 55.73 32.271.5-49.084.5-49.084 61.545-35.687c33.85-19.629 120.16-69.663 191.8-111.188 94.758-54.925 130.138-75.909 129.828-77-.788-2.769-233.262-406.364-234.224-406.631-.522-.145-17 9.051-36.617 20.434m-306.117 177.36L620 350.325v129.822l5.25-3.008c2.888-1.655 21.9-12.67 42.25-24.479l37-21.471.257-64.594c.142-35.527-.099-64.595-.535-64.595-.435 0-19.564 10.873-42.507 24.163M384.759 437.991l-.259 49.151-191.75 111.162C87.287 659.442 1 709.806 1 710.223c0 .892 232.728 405.878 233.954 407.12.458.464 16.743-8.357 36.189-19.601a46604.035 46604.035 0 0 1 55.107-31.82l19.75-11.374V924.93l-2.25 1.187c-2.06 1.086-12.344 7.061-52.657 30.589-11.68 6.818-14.635 8.162-15.612 7.102-.663-.72-28.558-48.941-61.989-107.159-38.341-66.769-60.371-106.091-59.666-106.5.614-.357 78.063-45.199 172.109-99.649l170.992-99 .036-49 .036-49-55.144-32c-30.329-17.6-55.525-32.149-55.99-32.33-.465-.182-.963 21.788-1.106 48.821m-225.794 89.846a100413.75 100413.75 0 0 1-55.701 32.199c-16.63 9.605-30.241 17.689-30.245 17.964-.012.635 35.754 21.388 37.611 21.824 1.24.292 112.876-63.72 112.165-64.314-.162-.135-7.495-4.409-16.295-9.498-8.8-5.088-17.366-10.074-19.035-11.08l-3.035-1.829-25.465 14.734m197.671 149.657c-29.625 17.234-54.274 31.744-54.775 32.245-.549.549 15.823 10.602 41.114 25.246L385 759.32V1205h470l-.011-64.25-.011-64.25-55.739-32.273-55.739-32.274-.261 40.524-.261 40.523H497V694.422l-41.8-24.211c-22.989-13.316-42.452-24.175-43.25-24.131-.797.044-25.689 14.181-55.314 31.414m715.574.666c-30.409 17.652-55.159 32.207-55 32.345.16.138 15.815 9.139 34.79 20.004 18.975 10.864 34.664 19.896 34.864 20.069.435.378-120.601 211.351-122.317 213.207-.95 1.027-35.567-18.647-172.931-98.283l-171.743-99.567-42.187 24.428-42.186 24.429-.257 64.604c-.142 35.532.119 64.604.58 64.604.461 0 18.352-10.171 39.758-22.602 21.405-12.431 40.31-23.281 42.01-24.109l3.09-1.508 191.786 111.184c105.481 61.151 192.151 110.813 192.599 110.359C1006.31 1116.065 1239 711.097 1239 710.191c0-.436-16.312-10.262-36.25-21.836-19.937-11.573-44.429-25.838-54.425-31.699-9.996-5.861-18.771-10.641-19.5-10.623-.729.017-26.205 14.475-56.615 32.127" fill="undefined" fill-rule="evenodd"/></svg>